<?xml version="1.0" standalone="no"?>
<!DOCTYPE svg PUBLIC "-//W3C//DTD SVG 20010904//EN"
 "http://www.w3.org/TR/2001/REC-SVG-20010904/DTD/svg10.dtd">
<svg version="1.0" xmlns="http://www.w3.org/2000/svg"
 width="4097.000000pt" height="4097.000000pt" viewBox="0 0 4097.000000 4097.000000"
 preserveAspectRatio="xMidYMid meet">
<metadata>
Created by potrace 1.14, written by Peter Selinger 2001-2017
</metadata>
<g transform="translate(0.000000,4097.000000) scale(0.100000,-0.100000)"
fill="#000000" stroke="none">
<path d="M21190 40915 c-11 -26 -20 -51 -20 -55 0 -5 -7 -24 -15 -42 -14 -31
-34 -84 -120 -313 -21 -55 -52 -138 -70 -185 -18 -47 -68 -177 -110 -290 -42
-113 -80 -214 -85 -225 -8 -17 -170 -444 -275 -725 -17 -47 -66 -175 -107
-285 -42 -110 -137 -362 -212 -560 -75 -198 -140 -369 -145 -380 -5 -11 -17
-42 -26 -70 -10 -27 -23 -63 -30 -80 -7 -16 -30 -75 -50 -130 -20 -55 -41
-111 -46 -124 -6 -13 -44 -114 -85 -225 -42 -111 -86 -228 -99 -261 -13 -33
-42 -109 -65 -170 -22 -60 -45 -119 -49 -130 -5 -11 -14 -36 -21 -55 -7 -19
-16 -44 -21 -55 -9 -21 -96 -250 -268 -710 -56 -148 -106 -279 -111 -290 -5
-11 -62 -159 -126 -330 -218 -581 -252 -670 -334 -884 -45 -118 -87 -231 -94
-250 -16 -44 -549 -1450 -653 -1721 -41 -107 -76 -199 -77 -205 -2 -5 -6 -17
-9 -25 -8 -19 -269 -708 -307 -810 -15 -41 -130 -345 -255 -675 -125 -330
-238 -627 -250 -660 -32 -85 -436 -1151 -502 -1325 -30 -80 -66 -174 -80 -210
-13 -36 -29 -76 -33 -90 -5 -14 -15 -38 -21 -55 -7 -16 -13 -32 -14 -35 -2
-11 -46 -126 -55 -145 -9 -20 -529 -1392 -534 -1410 -2 -5 -6 -17 -9 -25 -3
-8 -17 -44 -31 -80 -13 -36 -55 -148 -94 -250 -39 -102 -102 -268 -140 -370
-39 -102 -208 -549 -377 -995 -170 -445 -314 -828 -322 -850 -12 -35 -23 -64
-53 -140 -5 -11 -25 -65 -45 -120 -20 -55 -41 -109 -46 -120 -4 -11 -40 -103
-78 -205 -102 -273 -333 -882 -466 -1230 -64 -168 -117 -309 -119 -315 -1 -5
-16 -46 -33 -90 -17 -44 -117 -309 -223 -590 -106 -280 -196 -519 -201 -530
-5 -11 -27 -69 -49 -130 -22 -60 -45 -119 -50 -130 -8 -18 -167 -435 -241
-635 -15 -41 -51 -136 -79 -210 -28 -74 -110 -290 -181 -480 -72 -190 -134
-354 -139 -365 -8 -17 -220 -577 -405 -1070 -76 -203 -135 -358 -142 -375 -3
-8 -7 -19 -9 -25 -4 -15 -184 -487 -194 -510 -5 -11 -57 -148 -115 -305 -59
-157 -111 -294 -116 -305 -5 -11 -33 -85 -63 -165 -56 -148 -183 -486 -391
-1035 -272 -718 -386 -1018 -435 -1150 -29 -77 -56 -149 -61 -160 -17 -40
-146 -385 -144 -385 12 0 22844 22845 22838 22850 -4 3 -33 26 -63 50 -30 25
-57 47 -60 50 -6 7 -347 280 -381 305 -15 11 -103 79 -195 150 -93 72 -221
168 -284 214 -63 47 -137 101 -165 122 -279 206 -824 569 -1220 814 -156 96
-217 133 -297 180 -176 103 -279 163 -303 176 -16 9 -90 51 -164 93 -73 42
-135 76 -138 76 -2 0 -43 22 -91 49 -181 102 -780 406 -1002 509 -36 16 -101
47 -145 67 -44 20 -118 54 -165 75 -47 21 -110 49 -140 63 -49 22 -148 65
-235 102 -16 7 -46 19 -65 28 -129 56 -543 222 -720 289 -30 11 -64 24 -75 29
-19 8 -76 29 -365 132 -467 168 -1363 441 -1710 522 -8 2 -134 32 -280 68
-146 36 -278 68 -295 71 -47 10 -74 16 -92 20 -34 8 -308 66 -338 72 -16 2
-37 7 -45 9 -8 2 -31 7 -50 10 -19 3 -54 10 -78 16 -23 5 -59 12 -78 15 -20 3
-46 8 -58 10 -25 6 -110 22 -151 29 -16 2 -39 7 -50 9 -17 3 -110 19 -235 40
-14 3 -43 7 -65 11 -60 8 -222 34 -285 45 -30 5 -75 12 -100 15 -25 2 -54 7
-65 9 -11 2 -47 7 -80 11 -32 4 -68 9 -80 11 -11 2 -45 6 -75 9 -30 3 -66 7
-80 10 -14 2 -50 7 -80 10 -30 3 -66 8 -80 10 -14 2 -54 6 -90 9 -36 3 -74 8
-85 10 -11 2 -56 7 -100 10 -44 4 -91 9 -105 11 -30 4 -132 14 -220 20 -36 3
-83 7 -106 9 -22 2 -85 7 -140 11 -54 4 -115 8 -134 10 -19 2 -89 6 -155 10
-66 4 -147 8 -180 10 -33 2 -126 7 -208 10 l-147 7 -20 -47z"/>
<path d="M8055 29793 c-4405 -4407 -8011 -8014 -8011 -8015 -4 -8 -21 -348
-31 -623 -9 -255 -9 -1091 1 -1345 9 -263 12 -315 31 -635 9 -147 16 -253 20
-285 3 -19 7 -71 10 -115 3 -44 8 -102 10 -130 3 -27 8 -70 10 -95 7 -93 17
-186 20 -210 2 -14 7 -56 11 -95 3 -38 8 -77 9 -85 2 -8 6 -49 10 -90 3 -41 8
-82 10 -90 2 -8 7 -40 10 -70 3 -30 8 -66 10 -80 2 -14 6 -43 9 -65 3 -22 12
-87 20 -145 8 -58 18 -127 21 -155 4 -27 8 -57 10 -65 2 -8 7 -37 11 -65 6
-48 8 -59 18 -115 3 -14 8 -43 11 -65 3 -22 8 -53 11 -70 3 -16 7 -39 9 -50 1
-11 8 -51 15 -90 7 -38 14 -79 15 -90 4 -27 19 -105 30 -155 3 -14 7 -38 10
-55 2 -16 11 -66 20 -110 9 -44 18 -91 21 -105 2 -14 9 -45 14 -70 6 -25 12
-54 14 -65 5 -21 36 -170 41 -195 41 -184 85 -371 121 -515 25 -99 47 -189 49
-200 3 -11 14 -54 25 -95 11 -41 22 -82 25 -92 16 -68 134 -484 175 -618 28
-91 53 -174 55 -185 6 -26 181 -554 234 -705 77 -221 194 -536 227 -611 13
-31 24 -62 24 -68 0 -6 4 -19 10 -29 5 -9 44 -102 86 -207 84 -210 233 -559
300 -703 24 -52 44 -95 44 -97 0 -2 23 -52 51 -112 28 -59 65 -137 81 -173 39
-85 313 -632 368 -735 63 -119 120 -224 148 -275 13 -25 39 -72 57 -105 18
-33 56 -100 84 -148 28 -49 51 -90 51 -91 0 -4 170 -292 245 -416 31 -52 65
-108 75 -125 14 -25 60 -99 181 -290 80 -127 404 -611 410 -613 5 -2 9 -8 9
-13 0 -14 507 -718 587 -814 7 -8 58 -74 85 -110 81 -104 320 -401 326 -403 5
-1 32 62 62 140 29 79 59 157 65 173 7 17 40 102 73 190 181 485 355 944 368
972 8 17 14 34 14 37 0 3 15 45 34 94 19 48 57 148 85 222 28 74 56 149 62
165 7 17 13 32 14 35 1 3 5 12 8 20 3 8 101 267 218 575 275 728 321 849 413
1095 42 113 81 214 86 225 5 11 32 81 59 155 28 74 82 218 121 320 39 102 77
203 85 225 8 22 76 200 150 395 75 195 137 362 139 371 2 8 15 42 29 75 13 32
28 70 32 84 4 14 13 39 21 55 7 17 43 111 79 210 37 99 70 189 76 200 5 11
108 283 230 605 273 723 408 1080 416 1100 3 8 7 20 9 25 6 21 166 441 179
470 7 17 75 194 150 395 76 201 187 496 247 655 128 337 135 356 217 575 34
91 66 174 71 185 5 11 33 85 63 165 167 443 518 1370 559 1475 11 28 23 61 28
75 4 14 49 133 99 265 51 132 108 283 128 335 157 418 225 598 233 615 4 11
32 83 60 160 28 77 56 151 62 165 18 41 23 55 126 330 171 452 440 1165 522
1380 43 113 92 243 109 290 18 47 36 94 41 105 5 11 54 139 108 285 104 275
388 1028 448 1185 19 50 48 124 64 165 33 87 172 457 205 545 12 33 41 107 63
165 22 58 92 242 156 410 208 553 224 594 261 690 21 52 43 113 51 135 7 22
27 76 44 120 32 81 57 149 124 330 21 55 41 109 47 120 9 21 137 356 196 515
51 137 79 211 90 240 6 14 54 142 107 285 53 143 103 274 111 290 7 17 43 109
79 205 84 226 445 1180 453 1200 3 8 7 17 8 20 1 3 5 14 9 25 5 11 28 74 53
140 24 66 49 131 54 144 6 13 44 114 85 225 42 111 86 228 99 261 13 33 91
240 175 460 83 220 155 409 160 420 5 11 32 83 60 160 106 285 377 1002 390
1030 5 11 43 112 85 225 42 113 80 214 85 225 5 11 37 94 70 185 34 91 72 192
85 225 13 33 112 294 220 580 108 286 207 547 220 580 13 33 58 152 100 265
41 113 80 214 84 225 21 48 67 169 166 435 59 157 115 305 125 330 10 25 48
126 85 225 37 99 71 189 76 200 5 11 22 56 38 100 16 44 83 222 149 395 280
738 334 882 330 884 -1 1 -3607 -3604 -8013 -8011z"/>
<path d="M29651 27052 l-6561 -6560 6561 -6561 6561 -6561 74 93 c42 50 83
101 92 112 29 34 185 227 217 270 18 22 80 103 139 180 59 77 114 148 121 157
18 22 293 399 360 493 69 96 88 125 180 261 44 65 83 121 86 124 5 5 101 150
231 350 66 103 102 160 251 400 22 36 50 81 62 100 32 52 260 443 268 460 4 8
17 31 28 50 48 79 161 286 309 565 67 125 360 711 360 719 0 3 22 49 48 103
27 54 49 100 49 103 1 3 18 41 38 85 20 44 59 132 87 195 27 63 66 151 85 195
43 96 44 99 122 290 34 83 66 159 70 170 102 235 354 934 500 1386 115 359
318 1069 356 1248 2 9 22 90 44 181 42 175 110 467 117 507 3 13 20 96 39 186
18 89 50 248 69 352 39 212 44 240 61 345 3 19 10 58 15 85 5 28 16 100 25
160 9 61 20 133 25 160 5 28 12 75 15 105 3 30 8 62 10 70 2 8 7 38 10 65 4
28 8 64 11 80 2 17 6 53 9 80 5 45 9 76 20 155 2 14 6 54 10 90 3 36 8 72 10
80 2 8 7 49 10 90 3 41 8 82 10 90 2 8 6 51 10 95 3 44 8 94 10 110 3 17 7 66
11 110 3 44 7 98 9 120 2 22 6 78 10 125 3 47 8 108 10 135 3 28 7 95 10 150
3 55 7 136 10 180 33 485 37 1484 10 2030 -4 85 -17 318 -20 360 -12 199 -17
265 -20 295 -2 19 -7 76 -10 125 -4 50 -8 106 -10 125 -2 19 -7 69 -10 110 -3
41 -8 86 -10 100 -2 14 -6 54 -10 90 -3 36 -8 81 -10 100 -3 19 -7 60 -10 90
-4 49 -18 161 -30 245 -2 17 -9 71 -15 120 -6 50 -13 101 -15 115 -7 51 -24
167 -31 215 -4 28 -9 57 -10 65 -2 8 -6 35 -9 60 -3 25 -17 113 -31 195 -31
187 -33 198 -39 238 -3 17 -9 52 -15 77 -9 44 -36 190 -44 240 -2 14 -7 36
-10 50 -3 14 -8 36 -10 50 -6 39 -36 181 -46 220 -5 19 -11 53 -15 75 -3 22
-8 48 -11 57 -3 9 -7 25 -9 35 -2 10 -11 52 -20 93 -10 41 -21 93 -25 115 -5
22 -36 153 -70 290 -34 138 -63 255 -64 260 -4 18 -26 98 -52 192 -14 51 -27
101 -29 110 -14 70 -186 644 -265 888 -159 491 -428 1223 -541 1472 -10 24
-19 45 -19 48 0 6 -173 409 -214 499 -18 39 -68 150 -112 246 -127 283 -456
935 -610 1213 -30 53 -54 99 -54 101 0 3 -20 39 -45 80 -25 42 -45 81 -45 86
0 6 -4 10 -10 10 -5 0 -10 5 -10 11 0 6 -32 65 -71 132 -40 67 -83 142 -97
167 -27 48 -138 233 -203 338 -93 148 -128 204 -206 325 -46 70 -83 132 -83
137 0 6 -4 10 -8 10 -5 0 -14 10 -21 23 -25 49 -238 364 -383 566 -158 222
-232 325 -245 341 -6 8 -33 44 -60 80 -26 36 -51 70 -56 75 -4 6 -50 66 -103
135 -109 144 -114 150 -253 325 -159 200 -267 333 -296 364 -12 12 -1041
-1013 -6574 -6547z"/>
<path d="M13924 11326 c-3605 -3605 -6554 -6559 -6554 -6565 0 -6 3 -11 8 -11
4 0 21 -13 38 -28 57 -50 345 -283 415 -337 15 -11 120 -92 235 -180 115 -89
225 -172 244 -185 19 -14 42 -30 50 -37 77 -61 479 -346 645 -456 55 -37 105
-70 110 -75 19 -14 319 -209 430 -279 262 -165 642 -394 815 -490 91 -51 128
-72 163 -91 17 -10 86 -48 152 -84 66 -36 147 -80 180 -98 96 -53 792 -403
880 -442 44 -20 121 -55 170 -78 98 -46 183 -85 230 -105 17 -7 65 -29 108
-49 44 -20 81 -36 83 -36 3 0 24 -9 47 -19 23 -10 71 -31 107 -46 36 -15 83
-35 105 -45 53 -24 560 -225 655 -260 41 -15 192 -69 335 -120 143 -51 269
-96 280 -101 11 -4 106 -36 210 -70 105 -34 216 -70 248 -81 319 -104 970
-283 1410 -387 48 -12 125 -30 173 -41 47 -12 104 -25 127 -29 23 -5 85 -18
137 -30 52 -11 111 -23 130 -26 19 -3 73 -14 120 -25 76 -17 192 -40 275 -55
36 -6 71 -13 107 -20 15 -4 39 -8 55 -10 15 -2 120 -20 233 -39 113 -19 223
-37 245 -41 22 -3 51 -7 65 -10 14 -2 61 -9 105 -15 44 -6 93 -14 110 -16 16
-3 50 -7 75 -10 25 -2 52 -6 60 -9 8 -2 44 -7 80 -10 36 -4 72 -8 80 -10 9 -2
43 -6 75 -10 33 -4 71 -8 84 -11 14 -2 54 -6 90 -9 36 -4 77 -8 91 -10 14 -2
52 -7 85 -10 78 -7 152 -15 195 -20 19 -2 69 -7 110 -10 41 -3 95 -8 120 -10
25 -2 81 -6 125 -9 119 -9 213 -16 280 -21 97 -8 336 -20 625 -31 357 -15
1278 -9 1675 11 255 12 323 16 360 20 22 2 83 7 135 10 101 6 202 14 260 20
19 2 76 7 125 11 50 3 97 8 106 9 8 2 53 6 100 10 46 4 91 8 100 10 9 2 52 6
95 10 43 4 81 9 84 10 3 2 43 6 90 10 47 4 87 8 90 10 3 2 34 6 70 10 36 4 73
9 84 11 10 2 44 6 75 10 31 3 64 8 75 10 10 2 44 6 75 9 31 4 63 8 71 10 8 3
60 11 115 19 159 24 172 26 325 52 80 14 154 26 165 28 41 7 201 36 225 41 14
3 41 8 60 11 19 3 43 7 52 10 10 3 30 7 45 10 43 7 261 52 438 90 88 20 171
37 185 40 45 9 674 164 720 178 25 8 72 21 105 30 376 102 734 211 1170 357
261 88 749 264 839 303 43 18 239 97 251 100 12 3 4 0 205 84 85 35 174 72
197 83 23 10 44 19 47 19 3 0 29 11 58 24 29 14 148 67 263 119 337 151 924
438 1135 554 30 17 96 52 145 78 138 73 579 322 680 383 50 30 104 63 121 72
30 17 180 108 261 159 385 240 846 549 1203 805 199 144 553 412 770 585 174
139 179 143 194 156 6 6 46 39 88 73 43 34 80 68 84 74 6 10 -13092 13118
-13109 13118 -5 0 -2958 -2949 -6563 -6554z"/>
</g>
</svg>
